<svg xmlns="http://www.w3.org/2000/svg" viewBox="0 0 141.30344 257.54312">
    <path d="M68.96156493 163.2596161c-7.92042702 4.18278297-16.21008505 7.6780606-24.78193773 10.2872775-8.5242931 2.54865457-17.34038647 4.29254485-26.2510133 4.54053408.28770031 3.13178656.58125771 6.26369026.89742349 9.39371969.39757933 4.1257349.82936408 8.25920116 1.78360135 12.30176537 1.7212819 7.91093853 4.25084236 15.6629156 7.75572562 22.96987091 3.42346969 7.10055142 7.7595913 13.82238334 13.26385113 19.49333599 4.78864046 4.9117565 10.49168997 9.06595687 16.97502114 11.41769605 3.48965482 1.32358542 7.2046905 1.9389314 10.906372 2.23799447 3.567437-.01885983 7.15361667-.40695068 10.59208051-1.39351909 3.46704645-.984577 6.78825133-2.4767295 9.84986994-4.37958122 6.0876261-3.75474676 11.22277206-8.91636678 15.43191194-14.66873299 4.6220648-6.31488123 8.19500744-13.35475319 10.93870315-20.67119698 2.91776846-7.94889248 5.01952699-16.22519635 5.95115588-24.6493332.27832897-2.2361202.53580669-4.4742318.79340155-6.71234342.40695068-5.20507963.48660712-10.4368676.25548631-15.65342712-.04720815-.27832897.02085124-.59824328-.1475987-.8349869-8.2063702-8.39754564-15.47724582-17.74757143-21.2959143-27.95530963-9.52995563 9.84600426-20.8435126 17.85733333-32.91813998 24.2762365M34.68575125 14.41711105C43.49610468 5.9380347 55.39478505.73283793 67.61337972.10425493c1.20609218.0378368 2.40855296-.20265535 3.61651941-.05681379 7.95264102-.0056228 15.88630506 1.97489395 22.97350231 5.5744278 9.52046714 4.7980118 17.4732253 12.62577963 22.45866402 22.04573909 5.22979655 9.72675388 7.1251512 21.15592983 5.50999979 32.06792465-1.50913807 10.2721662-6.17653675 20.0860736-13.28458524 27.66198652 6.17267106 4.1277263 11.7735729 9.132142 16.42023747 14.93382492 4.73932376 5.83752832 8.51679603 12.4494812 11.21129217 19.46686193 6.4206603 16.60016731 6.36208939 35.57269076-.07391649 52.15962105-2.3307708 6.03631798-5.45693454 11.77743858-9.34241157 16.95229562 1.62651417.48086717 3.082587 1.6019144 3.80207205 3.15837775.82362414 1.68520223.79340155 3.77747227-.1324874 5.41722347-.78391306 1.53936066-2.33463647 2.63768236-4.01808156 2.97270797-1.63401125.36735674-3.33045909-.11362757-4.72596959-.97508851-.7991415 3.88547702-1.98449957 7.68180913-3.23030283 11.44604437-2.64330517 7.5663073-6.10086313 14.88462536-10.63753153 21.50993241-4.17516875 6.10461167-9.26662081 11.66955097-15.38833518 15.8673281-6.75592019 4.72046391-14.97177888 7.52847048-23.25956264 7.2123047-7.8010595-.20640388-15.3673668-3.14502358-21.6575311-7.68380053-5.82253417-4.14096334-10.68872252-9.51660146-14.71043548-15.39583227-4.65041311-6.8013712-8.18177042-14.32222748-10.83819547-22.10829283-1.16462398-3.56919411-2.27407415-7.16673654-3.03151316-10.84580968-1.17774386.70624803-2.53541755 1.19660369-3.92717952 1.081219-1.98426529-.1173761-3.90609398-1.29898565-4.81499737-3.08071273-.90128916-1.59816585-.95997721-3.6279993-.19129259-5.2884846.69675955-1.6190171 2.18891205-2.79476955 3.8607601-3.28711662-2.23998588-3.01054477-4.28867917-6.18215955-5.9643929-9.54494977-8.87091575-16.72890618-10.633783-37.00627236-5.01402132-55.0681353 2.2798141-7.36365195 5.75060908-14.36018143 10.2304637-20.6351173 5.13713738-7.16872796 11.58638028-13.39259 18.95952071-18.2323043-4.88141678-5.26950763-8.664629-11.56353761-10.99926547-18.35928602-2.56001733-7.35603773-3.37790152-15.2934503-2.49933787-23.02645041.68340538-4.93823057 1.81394108-9.84424713 3.8285461-14.4264837 2.7682955-6.45861425 6.85443646-12.35119922 11.94213998-17.20028486"/>
    <path d="M27.6818887 182.91015641c-.61921167-.50745836-.10226482-1.67383947.68539678-1.4901611 1.12467862.38445946 2.2002748.90316344 3.33256764 1.2725116 8.57548407 2.98969353 18.18298758 2.87805737 26.69029512-.30691157.88254647-.2800861 1.69293358-.7554476 2.5904742-.98832554.69476814-.01136275 1.13229284.89180068.66067987 1.4106218-.44490463.38633372-1.04513932.51507258-1.57344892.74795052.6551742 1.89348038 1.44857574 3.73401266 2.11698697 5.6237445.19492398.58313198-.37497097 1.22881769-.98082846 1.05837634-.49234707.02272551-.63057442-.53018388-.78777874-.88617787-.6380715-1.71929049-1.32159402-3.42335255-1.93319146-5.15213153-1.06224202.27270616-2.07516734.71198799-3.15076353.93912598.37684523 1.93143432.93537743 3.8229233 1.37278499 5.74100345.14209303.50944978-.2291294 1.14939554-.80289004 1.09445603-.49597846.06630227-.79527581-.3938308-.88606072-.8178842-.452636-1.85564356-.93549458-3.70554718-1.35568229-5.5669307-1.07559619.1818041-2.14158675.41468204-3.21894007.57376063.17793843 2.01097363.52057825 4.0047274.6853968 6.01745815.01136275.74607625-.85958668.94111738-1.43334732.70624804-.34463123-.61347172-.3408827-1.32920824-.4260448-2.00511654-.16481854-1.50164099-.38059377-2.99555062-.53393241-4.49508306-1.07735332.06993367-2.15294951.13061313-3.22842856.1798127-.05681378 2.00511653.02647405 4.01409874-.04545103 6.01745815-.0171027.8899264-1.49016109 1.03377656-1.64736541.14197589-.15896145-2.04494476-.01124562-4.10874934-.06993367-6.16142545-1.07747046-.04919957-2.15482378-.10214767-3.23041997-.17606416-.24798923 1.99761946-.45052744 4.00285313-.75169906 5.99297551-.12112464.92963749-1.66809952.69675955-1.65486249-.1818041.20452962-2.01460502.48285858-4.02171297.7081223-6.03456086-1.08110185-.1647014-2.15470663-.36349107-3.22257147-.58313198-.45638453 1.91995443-.92788035 3.8380346-1.42011028 5.7503748-.08715351.72335074-1.23643191.87856365-1.53748639.23486935-.2442407-.35786826-.06817654-.78391306.00948849-1.15876688.43729041-1.74389028.84822392-3.49539477 1.2837572-5.23928504-1.06985624-.27832897-2.10761562-.67215977-3.17548045-.96372576-.68352252 1.86501492-1.3784078 3.72815557-2.11499556 5.57243638-.32190572.93350316-1.9540427.37485383-1.57344893-.58125771.67215977-1.8916061 1.4106218-3.76060385 2.10738134-5.64073006-.49796987-.2120267-1.0224138-.37110528-1.48816968-.64568571"/>
    <path d="M79.49689022 182.53527916c-.21776664-.73846204.62670874-1.42385882 1.29125428-1.00741965 8.03592886 3.5428372 17.26096432 4.30015907 25.76264905 2.08477297 2.14346102-.5206954 4.19613714-1.3310825 6.23709907-2.1489667.76505322-.35611112 1.46942699.75919614.9221404 1.35743942-.46001592.36559962-1.05076212.49796988-1.57708032.7367049.70425662 1.87825195 1.42948163 3.75088108 2.11487842 5.63686438.3616168.95997722-1.24966894 1.51663515-1.57907174.58313198-.73658776-1.84428081-1.43159018-3.70742146-2.11698697-5.57243637-1.06599056.29344025-2.10374994.68352252-3.1733719.96560002.46950441 1.96739686.99207407 3.9251881 1.41612746 5.90207346.14970725.92389753-1.34420238 1.257166-1.61316.39371365-.53006674-1.94841989-.99793117-3.91757388-1.46181277-5.88297934-1.07161337.21015243-2.14146961.4260448-3.22456288.57376064.21788378 1.95017702.46013307 3.89683978.69500242 5.84514253.15896145.65318279-.65716561 1.20808359-1.2288177.90878624-.43553328-.1058962-.42428767-.62284306-.49422133-.97133997-.23112082-1.85166075-.46212448-3.70168151-.67040264-5.55545082-1.07735332.08527925-2.1565809.11561898-3.23393423.1798127-.06067946 2.0506847.0887935 4.1164807-.07016795 6.16142545-.15896144.89180067-1.6302627.74795052-1.64724827-.14197589-.06630227-2.00324226.00175713-4.01234162-.03982822-6.01745815-1.07747046-.0529481-2.15283236-.09652486-3.22468002-.19304972-.21015242 1.81581535-.45439312 3.62776502-.64943425 5.44557179-.02834832.37485382-.1552129.73084781-.3199143 1.06786483-.56614642.22538086-1.43908727.05306524-1.42959878-.6910196.15333864-2.01659643.5055841-4.01609016.68164825-6.03268659-1.07934473-.15907859-2.14346102-.3938308-3.2170658-.57376063-.41269063 1.81968103-.88805214 3.6260079-1.32346828 5.44182325-.10039054.4375247-.34463124 1.03775938-.90128917.9316289-.63057441.0871535-.98270273-.64755999-.80663857-1.1758696.45251885-1.88399189.97696278-3.75088107 1.36142223-5.64811-1.07747046-.22538085-2.09039578-.66653695-3.15275494-.9392431-.67965684 1.8593921-1.37653353 3.71503568-2.10738134 5.55545081-.26509194.87294084-1.76462438.52069539-1.62838844-.3938308.61546312-1.96540546 1.48641255-3.85127162 2.14908383-5.80543146-.59449474-.29344026-1.41811888-.36735674-1.7400246-1.02053953"/>
    <path fill="#e53e30" d="M62.87396225 224.36794678c1.17212106-.63244868 2.50144643-1.32358542 3.87224-.97520565 1.61889996.41843058 3.0711071 1.29137142 4.47997177 2.16618654 1.36517077-.84260112 2.77005262-1.67583088 4.32089317-2.13209827 1.26864591-.37485382 2.56751441.14385016 3.67907314.73857918 2.921517 1.65474534 5.47966006 3.88348561 7.84651053 6.2464704-1.66060244 3.10531251-4.1901629 5.74100346-7.21417898 7.54182466-3.66759324 2.16407798-8.18177042 2.88555445-12.3264823 1.87637767-5.12565747-1.30847413-9.35190005-5.0235098-12.15240954-9.41246238 2.29867393-2.24186015 4.71296684-4.41940944 7.49438221-6.04967215"/>
  </svg>